PathFileType	4	(X/Y/Z)	Kaydara																																																																																																																									
DataRate	CameraRate	NumFrames	NumMarkers	Units	OrigDataRate	OrigDataStartFrame	OrigNumFrames																																																																																																																					
30	30	6	41	mm	30	1	147																																																																																																																					
Frame#	Time	NABA_LFHD			NABA_RFHD			NABA_LBHD			NABA_RBHD			NABA_LFTShould			NABA_RFTShould			NABA_LRRShould			NABA_RRRShould			NABA_T10			NABA_STRN			NABA_TRUN			NABA_LSHO			NABA_LUPA			NABA_LELB			NABA_LFRM			NABA_LWRA			NABA_LWRB			NABA_LFIN			NABA_RSHO			NABA_RUPA			NABA_RELB			NABA_RFRM			NABA_RWRA			NABA_RWRB			NABA_RFIN			NABA_LFWT			NABA_RFWT			NABA_LBWT			NABA_RBWT			NABA_LTHI			NABA_LKNE			NABA_LSHN			NABA_LANK			NABA_LHEE			NABA_LTOE			NABA_RTHI			NABA_RKNE			NABA_RSHN			NABA_RANK			NABA_RHEE			NABA_RTOE		
		X1	Y1	Z1	X2	Y2	Z2	X3	Y3	Z3	X4	Y4	Z4	X5	Y5	Z5	X6	Y6	Z6	X7	Y7	Z7	X8	Y8	Z8	X9	Y9	Z9	X10	Y10	Z10	X11	Y11	Z11	X12	Y12	Z12	X13	Y13	Z13	X14	Y14	Z14	X15	Y15	Z15	X16	Y16	Z16	X17	Y17	Z17	X18	Y18	Z18	X19	Y19	Z19	X20	Y20	Z20	X21	Y21	Z21	X22	Y22	Z22	X23	Y23	Z23	X24	Y24	Z24	X25	Y25	Z25	X26	Y26	Z26	X27	Y27	Z27	X28	Y28	Z28	X29	Y29	Z29	X30	Y30	Z30	X31	Y31	Z31	X32	Y32	Z32	X33	Y33	Z33	X34	Y34	Z34	X35	Y35	Z35	X36	Y36	Z36	X37	Y37	Z37	X38	Y38	Z38	X39	Y39	Z39	X40	Y40	Z40	X41	Y41	Z41
																																																																																																																												
1	0.01	261.15871	1599.84375	-1895.55359	89.95794	1570.75974	-1871.82877	270.68897	1598.47336	-2021.03348	54.99704	1575.65109	-1967.82013	255.10519	1357.32819	-1954.01611	105.48221	1334.263	-1950.9874	249.77505	1395.92911	-2080.18768	101.07532	1386.34506	-2069.79614	189.51744	1224.13979	-2141.21994	190.29711	1300.32013	-1903.02734	196.86054	1204.00314	-1852.07428	349.88106	1375.88516	-2011.11053	411.81534	1151.23245	-2063.06473	430.10307	1062.85744	-2045.29007	423.90396	984.09348	-2058.86749	377.97352	842.21085	-1972.32864	450.24261	841.69174	-1981.19354	431.53755	785.51102	-1933.66776	20.20229	1358.16757	-1999.8996	-22.91269	1154.30237	-2074.43527	-60.65749	1038.25806	-2036.42654	-67.35096	941.86539	-2024.83353	-9.72204	823.6808	-1937.43195	-84.20741	812.86179	-1942.82928	-72.61219	780.58151	-1905.90942	323.27614	948.84277	-1955.11139	53.45344	951.81084	-1953.51578	265.81558	992.03545	-2124.53812	101.50862	1026.94641	-2125.84274	318.79145	654.18442	-2096.60919	314.83929	502.47353	-2045.25055	262.30036	307.06558	-2028.30017	286.73365	157.03558	-2098.52692	229.45963	108.94434	-2152.36481	252.07254	81.23209	-1976.41418	42.20569	666.7897	-2082.69257	63.51988	506.15921	-1968.13812	66.80974	331.57619	-1999.40689	53.16317	145.53645	-2076.91772	94.10354	100.89664	-2149.57031	81.73877	86.06759	-1966.50742
2	0.043	263.28585	1599.72336	-1893.40454	92.1954	1570.55069	-1869.83749	272.90255	1598.48938	-2018.85986	57.15643	1575.68512	-1965.9613	256.82606	1356.97647	-1951.96655	107.2543	1334.03366	-1951.27563	252.31958	1396.17371	-2078.01437	103.52024	1387.13425	-2068.73734	192.1512	1225.04738	-2140.6459	191.77824	1299.78668	-1901.59668	197.60933	1203.30956	-1851.10077	351.86577	1375.7933	-2008.2724	415.27607	1151.39076	-2059.7641	433.62633	1062.87323	-2041.86142	427.77786	984.25873	-2055.82031	380.44258	842.25151	-1970.34119	452.91012	841.77734	-1977.91168	433.38718	785.60478	-1930.70633	22.31853	1358.64273	-1999.27505	-21.19138	1154.981	-2074.43649	-59.27094	1039.01566	-2036.73279	-65.38221	942.22908	-2023.95309	-6.66522	825.48462	-1935.22629	-81.25538	813.96828	-1940.25925	-69.13943	782.04437	-1903.09586	324.23702	948.64639	-1955.16953	53.94321	951.9136	-1953.78494	268.51936	992.04941	-2124.96185	103.621	1026.91368	-2127.49878	320.27416	654.04381	-2097.02286	315.7818	502.31174	-2046.03363	262.80174	307.0763	-2028.93814	286.9191	156.64349	-2099.23569	229.67577	108.82492	-2152.48154	251.99854	81.18711	-1976.40808	43.87519	665.91408	-2079.53278	64.85526	506.6637	-1963.14255	67.02599	331.50433	-1996.47202	53.1285	147.09062	-2077.61353	95.05183	102.91262	-2150.28427	80.10549	88.2321	-1967.90085
3	0.077	265.01972	1599.65927	-1891.70273	93.40741	1570.79483	-1868.37341	274.49596	1598.43506	-2017.21878	58.77681	1575.8522	-1964.17267	257.58116	1356.58386	-1950.46066	108.16659	1334.06372	-1950.76019	253.79457	1396.48773	-2076.25992	104.90511	1387.89627	-2067.76947	193.26979	1225.9198	-2140.18936	191.96486	1299.31625	-1900.40649	197.52535	1202.60628	-1850.43457	352.78721	1375.31601	-2005.77805	417.21676	1151.11023	-2056.87119	435.8696	1061.67732	-2037.05551	430.47306	984.27666	-2053.50143	382.60941	842.1769	-1968.54401	455.21389	841.84875	-1975.15274	435.25063	785.6279	-1928.29407	23.3094	1359.29657	-1998.67813	-20.35328	1155.43945	-2073.96088	-58.22855	1039.3795	-2035.9584	-64.05037	942.57095	-2022.49557	-4.52626	826.90536	-1933.1691	-79.07381	814.90181	-1937.60803	-66.33957	783.1041	-1900.34744	324.66576	948.6882	-1955.67413	54.49845	952.14661	-1954.88174	269.97368	991.55243	-2124.94568	104.41476	1026.48453	-2128.48267	320.658	654.01283	-2096.82007	316.04229	502.31758	-2045.96649	262.8528	307.09007	-2028.87268	287.06125	156.75979	-2098.57651	229.7212	108.89736	-2152.42264	251.94019	81.13235	-1976.35757	44.98421	665.28381	-2076.55106	65.81915	507.0895	-1957.7446	67.89917	331.81129	-1994.59961	52.5504	149.23714	-2079.44916	94.83524	106.6641	-2152.9808	79.08115	88.83471	-1971.20926
4	0.11	266.02652	1599.2926	-1890.41489	94.49957	1570.82291	-1866.82739	275.36346	1598.24509	-2015.91751	59.81667	1576.2326	-1962.53952	257.40055	1356.3298	-1949.65302	106.20025	1334.69009	-1949.11453	253.81382	1396.5419	-2075.32074	104.97839	1388.42377	-2067.00638	192.99143	1226.38939	-2139.85275	191.73992	1299.27872	-1900.06393	196.79352	1202.28821	-1850.05173	352.72148	1375.06744	-2004.84558	417.76897	1150.89256	-2055.57693	436.63086	1061.52969	-2035.52673	431.63528	984.1584	-2051.9841	384.28993	841.85722	-1966.97128	456.96571	841.93695	-1973.44055	437.29179	785.79666	-1926.51947	23.19309	1360.00916	-1997.97226	-20.80941	1155.95444	-2073.09845	-57.82134	1039.61227	-2034.60159	-63.41059	942.96288	-2020.95627	-2.99891	828.16109	-1931.25717	-77.62443	815.66307	-1935.33401	-64.29693	783.77487	-1898.04703	324.38278	949.06082	-1954.86038	54.40991	952.44514	-1955.02686	270.2916	990.98061	-2124.42093	104.11936	1025.84679	-2128.57498	319.96044	654.1143	-2096.09909	315.66324	502.35584	-2045.31418	262.62268	307.04599	-2028.41156	286.92673	156.83187	-2098.46146	229.6608	109.01325	-2152.29248	251.89793	81.12112	-1976.32538	45.11081	664.86511	-2073.43262	66.93821	507.46826	-1952.83569	68.4479	331.91109	-1992.81265	51.5739	151.67834	-2082.39471	92.94325	111.06997	-2157.25418	79.31142	86.75759	-1976.00937
5	0.143	266.33173	1598.87238	-1889.61029	94.69594	1571.0434	-1865.89706	275.46774	1597.98431	-2015.15533	59.74211	1576.7775	-1961.77429	256.52975	1356.01318	-1949.49173	105.6055	1334.80881	-1948.51196	252.8089	1396.1908	-2075.15564	103.99485	1388.59192	-2066.32339	191.39353	1226.27235	-2139.35532	190.94067	1299.23523	-1899.50378	195.46535	1202.32826	-1849.55673	351.82545	1374.52362	-2004.93607	416.65241	1150.41969	-2055.44922	436.0416	1061.28677	-2035.25894	431.28014	983.84705	-2051.45691	385.37975	841.5419	-1965.68802	457.95036	842.03461	-1972.49115	438.95218	785.95222	-1925.34439	22.25227	1360.53558	-1997.15942	-22.13363	1156.53481	-2071.96564	-58.8297	1040.16281	-2033.62534	-63.69611	943.23227	-2019.3396	-2.2731	828.97621	-1929.63943	-76.77339	816.00594	-1933.30109	-62.98762	784.16939	-1896.03897	323.26546	949.49623	-1954.20364	53.14163	952.57164	-1953.24158	269.10973	990.46661	-2123.34488	102.56422	1025.13008	-2127.47116	318.63403	654.29756	-2095.06683	314.79876	502.52674	-2044.31732	262.16135	306.96848	-2027.76016	286.68846	156.99926	-2098.28522	229.54472	109.18333	-2152.15073	251.87641	81.11096	-1976.32034	44.02193	664.52713	-2070.79895	67.43168	507.26112	-1950.19974	68.29342	331.94916	-1992.21222	50.11718	152.8794	-2083.95081	90.80156	113.78095	-2159.36966	79.0589	83.62206	-1978.67294
6	0.177	265.75634	1598.73871	-1888.98148	94.01971	1571.49506	-1865.18036	274.78079	1597.75955	-2014.57108	58.99355	1577.26959	-1961.00754	255.1886	1355.6723	-1949.47723	104.04281	1334.90372	-1947.57065	250.78836	1395.67551	-2075.13184	102.05942	1388.42865	-2065.47958	188.64185	1225.7946	-2138.48969	189.60863	1299.21524	-1898.80463	194.20471	1202.42271	-1848.98132	350.27821	1373.75092	-2005.66711	414.02935	1149.44092	-2056.63956	434.23378	1060.62424	-2036.19354	429.58145	983.05252	-2051.84723	385.58426	840.89943	-1964.79034	458.02269	841.8396	-1972.52319	440.11314	785.96016	-1924.79889	20.52628	1360.85709	-1995.96405	-24.46187	1156.69281	-2070.53192	-60.28355	1039.82597	-2031.6713	-64.82309	943.17238	-2017.52884	-2.24536	829.23012	-1928.41675	-76.67673	815.86792	-1931.47903	-62.31733	784.01115	-1894.36676	321.47163	949.92554	-1953.28323	51.25179	952.60063	-1950.82336	266.27365	990.34668	-2122.16354	99.55582	1024.7245	-2125.18784	316.58085	654.49509	-2093.84109	313.36924	502.87247	-2043.11523	261.52205	306.96722	-2026.91467	286.39702	157.46785	-2097.91245	229.28606	109.46988	-2151.94061	251.95244	81.13206	-1976.26556	42.16666	664.5253	-2070.03113	65.59594	506.64604	-1950.88699	66.36598	332.00562	-1991.89285	49.02927	151.69322	-2081.61758	89.88108	112.68187	-2156.45447	76.59606	82.17954	-1975.53299
